<svg width="48" height="60" viewBox="0 0 48 60" fill="none" xmlns="http://www.w3.org/2000/svg">
<path d="M47 21.2968V54C47 56.7614 44.7614 59 42 59H34.4762C31.7148 59 29.4762 56.7614 29.4762 54V49.0589C29.4762 46.2975 27.2376 44.0589 24.4762 44.0589H23.395C20.6335 44.0589 18.395 46.2975 18.395 49.0589V54C18.395 56.7614 16.1564 59 13.395 59H6C3.23858 59 1 56.7614 1 54V21.2316C1 19.7546 1.65299 18.3532 2.78386 17.4032L20.3529 2.64382C22.1817 1.10751 24.8417 1.07913 26.7028 2.57609L45.1338 17.4007C46.3137 18.3498 47 19.7825 47 21.2968Z" stroke="#D9D9D9"/>
</svg>
